# xmcd CD database file
#
# Track frame offsets:
#	200
#	20360
#	37090
#	54557
#	76850
#	112155
#	136832
#
# Disc length: 2228 seconds
#
# Revision: 1
# Processed by: cddbd v1.5.1PL0 Copyright (c) Steve Scherf et al.
# Submitted via: CDex 1.51
#
DISCID=5608b207
DTITLE=Tito Gomez - Para Gozar Borinquen
DYEAR=1977
DGENRE=Salsa
TTITLE0=Para Gozar Borinquen
TTITLE1=Estas Caliente
TTITLE2=Aquel Momento
TTITLE3=La Envidia y la Hipocresia
TTITLE4=Veneno
TTITLE5=Llorar Es De Hombre
TTITLE6=La Jeva de la Java
EXTD=YEAR: 1977
EXTT0=
EXTT1=
EXTT2=
EXTT3=
EXTT4=
EXTT5=
EXTT6=
PLAYORDER=
